<?xml version="1.0" encoding="utf-8" ?>
<svg baseProfile="full" height="2048" version="1.1" viewBox="0 0 1152 2048" width="1152" xmlns="http://www.w3.org/2000/svg" xmlns:ev="http://www.w3.org/2001/xml-events" xmlns:xlink="http://www.w3.org/1999/xlink"><defs /><path d="M 578.655 1834.171 C 576.598 1831.898 576.541 1829.626 578.5 1828 C 580.04 1826.722 580.495 1827.515 580.075 1830.75 C 579.817 1832.737 581.477 1832.214 584.593 1829.327 C 586.824 1827.258 587.593 1825.504 587.989 1821.577 C 588.5 1816.5 588.5 1816.5 593.373 1816.755 C 597.638 1816.978 599.356 1816.374 607.148 1811.915 C 615.124 1807.351 617.038 1806.695 625.54 1805.617 C 634.142 1804.527 635.293 1804.125 637.853 1801.322 C 639.818 1799.171 642.018 1798.007 645.088 1797.497 C 647.515 1797.094 650.715 1796.142 652.2 1795.382 C 653.686 1794.622 656.11 1794 657.587 1794 C 659.065 1794 663.925 1792.23 668.387 1790.067 C 677.76 1785.523 685.655 1783.255 687.092 1784.692 C 688.396 1785.996 677.632 1795.956 674.72 1796.142 C 673.499 1796.219 669.273 1796.392 665.328 1796.526 C 657.629 1796.787 647.782 1800.691 645.875 1804.24 C 644.069 1807.601 639.494 1809 630.3 1809.001 C 620.443 1809.002 611.917 1812.099 607 1817.466 C 605.625 1818.967 602.726 1821.104 600.558 1822.215 C 598.391 1823.327 593.542 1826.883 589.783 1830.118 C 582.368 1836.499 581.16 1836.939 578.655 1834.171 Z M 513.5 1823.152 C 509.64 1822.288 509.462 1819.518 513.263 1819.453 C 514.94 1819.425 516.634 1818.54 517.57 1817.203 C 519.722 1814.131 522.653 1814.428 524.448 1817.899 C 526.704 1822.262 521.239 1824.884 513.5 1823.152 Z M 573.144 1821.465 C 570.841 1820.465 568.137 1820.201 564.528 1820.626 C 559.735 1821.189 555.475 1819.609 559.187 1818.645 C 559.909 1818.457 562.075 1817.718 564 1817.002 C 565.925 1816.286 569.868 1815.62 572.762 1815.521 C 577.602 1815.356 578.219 1815.599 580.468 1818.548 C 581.813 1820.311 582.633 1822.034 582.29 1822.377 C 581.223 1823.444 576.652 1822.988 573.144 1821.465 Z M 487.75 1819.608 C 485.429 1817.286 476.229 1813 473.568 1813 C 472.194 1813 470.641 1812.198 470.117 1811.218 C 469.592 1810.238 467.111 1808.411 464.604 1807.159 C 459.169 1804.444 458.533 1803.632 460.54 1801.967 C 461.789 1800.931 462.453 1801.068 464.279 1802.738 C 465.501 1803.856 467.625 1805.094 469 1805.489 C 470.375 1805.885 472.4 1806.765 473.5 1807.446 C 474.6 1808.127 477.717 1808.982 480.427 1809.347 C 483.137 1809.712 486.195 1810.771 487.223 1811.702 C 488.316 1812.691 490.952 1813.456 493.57 1813.545 C 496.477 1813.643 498.828 1814.399 500.274 1815.699 C 501.498 1816.801 503.316 1817.991 504.313 1818.344 C 508.137 1819.697 504.556 1821 497.012 1821 C 491.621 1821 488.704 1820.562 487.75 1819.608 Z M 492 1799.419 C 457.625 1787.632 428.6 1777.712 427.5 1777.373 C 426.4 1777.035 429.321 1780.3 433.991 1784.629 C 449.493 1798.998 450.966 1800.51 447.375 1798.366 C 440.825 1794.454 381.039 1753.628 381.373 1753.294 C 381.566 1753.101 388.159 1755.207 396.026 1757.974 C 403.892 1760.741 410.444 1762.89 410.585 1762.748 C 410.727 1762.606 398.279 1754.654 382.923 1745.077 C 367.567 1735.5 355.131 1727.536 355.288 1727.379 C 355.444 1727.223 359.095 1727.997 363.4 1729.1 C 367.705 1730.203 371.411 1730.922 371.636 1730.698 C 371.86 1730.474 369.023 1726.962 365.331 1722.895 C 361.639 1718.828 357.582 1714.354 356.316 1712.953 C 354.098 1710.498 353.634 1706.433 343.461 1600.453 C 332.908 1490.5 332.908 1490.5 348.477 1475.5 C 364.047 1460.5 364.047 1460.5 356.492 1441.5 C 348.308 1420.921 362.447 1430.104 109.045 1280.772 C 87.447 1268.045 87.447 1268.045 44.474 1265.525 C 20.838 1264.139 1.163 1263.004 0.75 1263.003 C 0.337 1263.001 0 1192.212 0 1105.692 C 0 948.385 0 948.385 18.5 861 C 37 773.615 37 773.615 37 758.308 C 37 749.888 36.663 743.112 36.25 743.25 C 35.837 743.387 35.5 743.05 35.5 742.5 C 35.5 741.95 35.837 741.613 36.25 741.75 C 37.501 742.167 37.088 732.488 35.8 731.2 C 34.867 730.267 34.867 729.733 35.8 728.8 C 37.507 727.093 37.461 709.908 35.75 710.25 C 34.871 710.426 34.5 708.867 34.5 705 C 34.5 701.554 34.91 699.574 35.597 699.699 C 37.245 699.998 38 678.558 38 631.453 C 38 590.222 38 590.222 47.75 586.648 C 211.163 526.742 199.124 530.237 301.5 512.999 C 353.75 504.202 397.625 496.809 399 496.571 C 414.457 493.899 417.514 493.788 445.147 494.897 C 460.741 495.523 500.263 496.939 532.973 498.044 C 592.446 500.053 592.446 500.053 653.132 531.067 C 686.509 548.125 714.025 562.625 714.28 563.29 C 714.535 563.956 734.376 617.375 758.371 682 C 802 799.5 802 799.5 817.997 920.471 C 833.995 1041.442 833.995 1041.442 827.837 1051.471 C 824.45 1056.987 820.857 1062.878 819.852 1064.562 C 818.024 1067.625 818.024 1067.625 831.033 1109.562 C 844.042 1151.5 844.042 1151.5 843.021 1168.211 C 842.459 1177.403 842 1185.587 842 1186.398 C 842 1187.264 837.445 1190.241 830.991 1193.594 C 819.699 1199.461 816.968 1201.657 825.526 1197.989 C 830.335 1195.927 830.335 1195.927 949.918 1258.139 C 1015.688 1292.355 1082.366 1327.029 1098.092 1335.192 C 1126.684 1350.035 1126.684 1350.035 1136.592 1345.932 C 1142.041 1343.675 1146.805 1341.53 1147.179 1341.165 C 1147.552 1340.799 1145.634 1331.095 1142.916 1319.6 C 1137.975 1298.699 1137.975 1298.699 1144.737 1288.1 C 1151.5 1277.5 1151.5 1277.5 1151.761 1317.905 C 1151.905 1340.128 1151.871 1358.463 1151.685 1358.648 C 1151.499 1358.834 1146.881 1358.363 1141.423 1357.601 C 1135.966 1356.839 1131.429 1356.279 1131.343 1356.358 C 1131.256 1356.436 1135.92 1360.55 1141.706 1365.5 C 1152.227 1374.5 1152.227 1374.5 1151.503 1506 C 1151.105 1578.325 1150.646 1637.646 1150.482 1637.824 C 1150.319 1638.002 1116.282 1652.493 1074.843 1670.027 C 1030.57 1688.76 999.491 1702.441 999.479 1703.203 C 999.465 1704.011 998.441 1704.393 996.761 1704.217 C 995.181 1704.051 992.382 1704.996 990.003 1706.498 C 987.77 1707.908 984.493 1709.348 982.721 1709.698 C 980.95 1710.047 971.23 1713.848 961.123 1718.143 C 942.747 1725.953 942.747 1725.953 742.623 1770.006 C 632.555 1794.235 542.067 1814.19 541.537 1814.35 C 541.008 1814.511 544.045 1815.908 548.287 1817.455 C 555.125 1819.949 557.549 1821.157 555.25 1820.924 C 554.837 1820.882 526.375 1811.205 492 1799.419 Z M 991.5 1703.802 C 992.174 1703.119 991.359 1703.024 989 1703.51 C 985.353 1704.261 983 1705.658 983 1707.071 C 983 1708.018 989.992 1705.329 991.5 1703.802 Z M 434 497.5 C 435.061 496.221 434.785 496 432.122 496 C 429.147 496 428.217 496.884 429.667 498.333 C 430.782 499.449 432.687 499.083 434 497.5 Z M 335.021 1732.906 C 331.277 1731.379 329 1728.944 329 1726.467 C 329 1725.245 328.33 1723.689 327.511 1723.009 C 325.626 1721.445 326.586 1719.669 328.683 1720.842 C 329.535 1721.319 334.448 1721.489 339.6 1721.219 C 349.098 1720.722 352 1721.502 352 1724.551 C 352 1726.773 348.996 1729 345.998 1729 C 343.795 1729 343.066 1729.516 342.82 1731.25 C 342.454 1733.827 339.05 1734.55 335.021 1732.906 Z M 1090.664 1667.331 C 1090.297 1666.963 1090.74 1665.84 1091.65 1664.835 C 1093.718 1662.55 1096.84 1664.282 1094.89 1666.633 C 1093.673 1668.1 1091.751 1668.417 1090.664 1667.331 Z M 1116.57 1658.113 C 1115.801 1656.87 1118.678 1654.683 1120.005 1655.503 C 1120.785 1655.985 1120.763 1656.581 1119.926 1657.589 C 1118.585 1659.205 1117.363 1659.396 1116.57 1658.113 Z M 1133.336 1651.433 C 1132.377 1648.933 1134.424 1647.621 1137.073 1649.039 C 1139.277 1650.218 1139.292 1650.313 1137.489 1651.632 C 1135.063 1653.406 1134.075 1653.359 1133.336 1651.433 Z M 1140.586 1650.139 C 1139.639 1648.608 1142.725 1646.142 1146.467 1645.44 C 1149.967 1644.784 1152 1645.387 1152 1647.084 C 1152 1648.955 1141.579 1651.745 1140.586 1650.139 Z M 1131.392 1336.578 C 1131.092 1335.796 1131.372 1334.173 1132.016 1332.971 C 1133.666 1329.888 1135.38 1331.871 1134.062 1335.337 C 1132.925 1338.328 1132.193 1338.668 1131.392 1336.578 Z" fill="#4c854e" fill-rule="evenodd" stroke="none" /></svg>